<?xml version="1.0" encoding="UTF-8" standalone="no"?>
<svg width="56.4444mm" height="54.3278mm"
 viewBox="0 0 160 154"
 xmlns="http://www.w3.org/2000/svg" xmlns:xlink="http://www.w3.org/1999/xlink"  version="1.2" baseProfile="tiny">
<title>OMEdit - OpenModelica Connection Editor</title>
<desc>Generated by OMEdit - OpenModelica Connection Editor</desc>
<defs>
</defs>
<g fill="none" stroke="black" stroke-width="1" fill-rule="evenodd" stroke-linecap="square" stroke-linejoin="bevel" >

<g fill="none" stroke="#000000" stroke-opacity="1" stroke-width="1" stroke-linecap="square" stroke-linejoin="bevel" transform="matrix(1,0,0,1,-299,-98)"
font-family="MS Shell Dlg 2" font-size="7.875" font-weight="400" font-style="normal" 
>
</g>

<g fill="none" stroke="#000000" stroke-opacity="1" stroke-width="1" stroke-linecap="square" stroke-linejoin="bevel" transform="matrix(1,0,0,1,-299,-98)"
font-family="MS Shell Dlg 2" font-size="7.875" font-weight="400" font-style="normal" 
>
</g>

<g fill="none" stroke="#000000" stroke-opacity="1" stroke-width="1" stroke-linecap="square" stroke-linejoin="bevel" transform="matrix(1,0,0,1,-299,-98)"
font-family="MS Shell Dlg 2" font-size="7.875" font-weight="400" font-style="normal" 
>
</g>

<g fill="none" stroke="#000000" stroke-opacity="1" stroke-width="1" stroke-linecap="square" stroke-linejoin="bevel" transform="matrix(2.14762,0,0,-2.14762,86,129)"
font-family="MS Shell Dlg 2" font-size="7.875" font-weight="400" font-style="normal" 
>
</g>

<g fill="none" stroke="#ff00ff" stroke-opacity="1" stroke-width="0.944882" stroke-linecap="square" stroke-linejoin="bevel" transform="matrix(2.14762,0,0,-2.14762,86,129)"
font-family="MS Shell Dlg 2" font-size="7.875" font-weight="400" font-style="normal" 
>
<path vector-effect="non-scaling-stroke" fill-rule="evenodd" d="M-8,8 L14,8 L14,28"/>
</g>

<g fill="none" stroke="#000000" stroke-opacity="1" stroke-width="1" stroke-linecap="square" stroke-linejoin="bevel" transform="matrix(2.14762,0,0,-2.14762,86,129)"
font-family="MS Shell Dlg 2" font-size="7.875" font-weight="400" font-style="normal" 
>
</g>

<g fill="none" stroke="#000000" stroke-opacity="1" stroke-width="1" stroke-linecap="square" stroke-linejoin="bevel" transform="matrix(2.14762,0,0,-2.14762,86,129)"
font-family="MS Shell Dlg 2" font-size="7.875" font-weight="400" font-style="normal" 
>
</g>

<g fill="none" stroke="#00007f" stroke-opacity="1" stroke-width="0.944882" stroke-linecap="square" stroke-linejoin="bevel" transform="matrix(2.14762,0,0,-2.14762,86,129)"
font-family="MS Shell Dlg 2" font-size="7.875" font-weight="400" font-style="normal" 
>
<path vector-effect="non-scaling-stroke" fill-rule="evenodd" d="M-8,40 L2,40"/>
</g>

<g fill="none" stroke="#000000" stroke-opacity="1" stroke-width="1" stroke-linecap="square" stroke-linejoin="bevel" transform="matrix(2.14762,0,0,-2.14762,86,129)"
font-family="MS Shell Dlg 2" font-size="7.875" font-weight="400" font-style="normal" 
>
</g>

<g fill="none" stroke="#000000" stroke-opacity="1" stroke-width="1" stroke-linecap="square" stroke-linejoin="bevel" transform="matrix(0.214762,0,0,-0.214762,116.067,43.0952)"
font-family="MS Shell Dlg 2" font-size="7.875" font-weight="400" font-style="normal" 
>
</g>

<g fill="none" stroke="#000000" stroke-opacity="1" stroke-width="1" stroke-linecap="square" stroke-linejoin="bevel" transform="matrix(0.214762,0,0,-0.214762,116.067,43.0952)"
font-family="MS Shell Dlg 2" font-size="7.875" font-weight="400" font-style="normal" 
>
</g>

<g fill="none" stroke="#000000" stroke-opacity="1" stroke-width="1" stroke-linecap="square" stroke-linejoin="bevel" transform="matrix(0.214762,0,0,-0.214762,116.067,43.0952)"
font-family="MS Shell Dlg 2" font-size="7.875" font-weight="400" font-style="normal" 
>
</g>

<g fill="none" stroke="#000000" stroke-opacity="1" stroke-width="1" stroke-linecap="square" stroke-linejoin="bevel" transform="matrix(0.214762,0,0,-0.214762,116.067,43.0952)"
font-family="MS Shell Dlg 2" font-size="7.875" font-weight="400" font-style="normal" 
>
</g>

<g fill="none" stroke="#000000" stroke-opacity="1" stroke-width="1" stroke-linecap="square" stroke-linejoin="bevel" transform="matrix(0.214762,0,0,-0.214762,116.067,43.0952)"
font-family="MS Shell Dlg 2" font-size="7.875" font-weight="400" font-style="normal" 
>
</g>

<g fill="none" stroke="#000000" stroke-opacity="1" stroke-width="1" stroke-linecap="square" stroke-linejoin="bevel" transform="matrix(0.214762,0,0,-0.214762,116.067,43.0952)"
font-family="MS Shell Dlg 2" font-size="7.875" font-weight="400" font-style="normal" 
>
</g>

<g fill="none" stroke="#000000" stroke-opacity="1" stroke-width="1" stroke-linecap="square" stroke-linejoin="bevel" transform="matrix(0.214762,0,0,-0.214762,116.067,43.0952)"
font-family="MS Shell Dlg 2" font-size="7.875" font-weight="400" font-style="normal" 
>
</g>

<g fill="#ffffff" fill-opacity="1" stroke="#00007f" stroke-opacity="1" stroke-width="0.944882" stroke-linecap="square" stroke-linejoin="miter" stroke-miterlimit="2" transform="matrix(0.214762,0,0,-0.214762,116.067,43.0952)"
font-family="MS Shell Dlg 2" font-size="7.875" font-weight="400" font-style="normal" 
>
<rect vector-effect="non-scaling-stroke" x="-100" y="-100" width="200" height="200"/>
</g>

<g fill="none" stroke="#000000" stroke-opacity="1" stroke-width="1" stroke-linecap="square" stroke-linejoin="bevel" transform="matrix(0.214762,0,0,-0.214762,116.067,43.0952)"
font-family="MS Shell Dlg 2" font-size="7.875" font-weight="400" font-style="normal" 
>
</g>

<g fill="none" stroke="#000000" stroke-opacity="1" stroke-width="1" stroke-linecap="square" stroke-linejoin="bevel" transform="matrix(0.214762,0,0,0.214762,116.067,-12.7429)"
font-family="MS Shell Dlg 2" font-size="7.875" font-weight="400" font-style="normal" 
>
</g>

<g fill="none" stroke="#0000ff" stroke-opacity="1" stroke-width="0.944882" stroke-linecap="square" stroke-linejoin="miter" stroke-miterlimit="2" transform="matrix(1,0,0,1,116.067,-12.7429)"
font-family="MS Shell Dlg 2" font-size="8" font-weight="400" font-style="normal" 
>
<text fill="#0000ff" fill-opacity="1" stroke="none" xml:space="preserve" x="-29.1875" y="31.0938" font-family="MS Shell Dlg 2" font-size="8" font-weight="400" font-style="normal" 
 >spannungsregler</text>
</g>

<g fill="none" stroke="#000000" stroke-opacity="1" stroke-width="1" stroke-linecap="square" stroke-linejoin="bevel" transform="matrix(0.214762,0,0,0.214762,116.067,-12.7429)"
font-family="MS Shell Dlg 2" font-size="7.875" font-weight="400" font-style="normal" 
>
</g>

<g fill="none" stroke="#000000" stroke-opacity="1" stroke-width="1" stroke-linecap="square" stroke-linejoin="bevel" transform="matrix(0.0429524,0,0,-0.0429524,90.2952,43.0952)"
font-family="MS Shell Dlg 2" font-size="7.875" font-weight="400" font-style="normal" 
>
</g>

<g fill="none" stroke="#000000" stroke-opacity="1" stroke-width="1" stroke-linecap="square" stroke-linejoin="bevel" transform="matrix(0.0429524,0,0,-0.0429524,90.2952,43.0952)"
font-family="MS Shell Dlg 2" font-size="7.875" font-weight="400" font-style="normal" 
>
</g>

<g fill="none" stroke="#000000" stroke-opacity="1" stroke-width="1" stroke-linecap="square" stroke-linejoin="bevel" transform="matrix(0.0429524,0,0,-0.0429524,90.2952,43.0952)"
font-family="MS Shell Dlg 2" font-size="7.875" font-weight="400" font-style="normal" 
>
</g>

<g fill="#00007f" fill-opacity="1" stroke="#00007f" stroke-opacity="1" stroke-width="0.944882" stroke-linecap="square" stroke-linejoin="miter" stroke-miterlimit="2" transform="matrix(0.0429524,0,0,-0.0429524,90.2952,43.0952)"
font-family="MS Shell Dlg 2" font-size="7.875" font-weight="400" font-style="normal" 
>
<path vector-effect="non-scaling-stroke" fill-rule="evenodd" d="M-100,100 L100,0 L-100,-100 L-100,100"/>
</g>

<g fill="none" stroke="#000000" stroke-opacity="1" stroke-width="1" stroke-linecap="square" stroke-linejoin="bevel" transform="matrix(0.0429524,0,0,-0.0429524,90.2952,43.0952)"
font-family="MS Shell Dlg 2" font-size="7.875" font-weight="400" font-style="normal" 
>
</g>

<g fill="none" stroke="#000000" stroke-opacity="1" stroke-width="1" stroke-linecap="square" stroke-linejoin="bevel" transform="matrix(0.0214762,0,0,-0.0214762,139.69,43.0952)"
font-family="MS Shell Dlg 2" font-size="7.875" font-weight="400" font-style="normal" 
>
</g>

<g fill="none" stroke="#000000" stroke-opacity="1" stroke-width="1" stroke-linecap="square" stroke-linejoin="bevel" transform="matrix(0.0214762,0,0,-0.0214762,139.69,43.0952)"
font-family="MS Shell Dlg 2" font-size="7.875" font-weight="400" font-style="normal" 
>
</g>

<g fill="none" stroke="#000000" stroke-opacity="1" stroke-width="1" stroke-linecap="square" stroke-linejoin="bevel" transform="matrix(0.0214762,0,0,-0.0214762,139.69,43.0952)"
font-family="MS Shell Dlg 2" font-size="7.875" font-weight="400" font-style="normal" 
>
</g>

<g fill="#ffffff" fill-opacity="1" stroke="#00007f" stroke-opacity="1" stroke-width="0.944882" stroke-linecap="square" stroke-linejoin="miter" stroke-miterlimit="2" transform="matrix(0.0214762,0,0,-0.0214762,139.69,43.0952)"
font-family="MS Shell Dlg 2" font-size="7.875" font-weight="400" font-style="normal" 
>
<path vector-effect="non-scaling-stroke" fill-rule="evenodd" d="M-100,100 L100,0 L-100,-100 L-100,100"/>
</g>

<g fill="none" stroke="#000000" stroke-opacity="1" stroke-width="1" stroke-linecap="square" stroke-linejoin="bevel" transform="matrix(0.0214762,0,0,-0.0214762,139.69,43.0952)"
font-family="MS Shell Dlg 2" font-size="7.875" font-weight="400" font-style="normal" 
>
</g>

<g fill="none" stroke="#000000" stroke-opacity="1" stroke-width="1" stroke-linecap="square" stroke-linejoin="bevel" transform="matrix(0,-0.0429524,0.0429524,0,116.067,68.8667)"
font-family="MS Shell Dlg 2" font-size="7.875" font-weight="400" font-style="normal" 
>
</g>

<g fill="none" stroke="#000000" stroke-opacity="1" stroke-width="1" stroke-linecap="square" stroke-linejoin="bevel" transform="matrix(0,-0.0429524,0.0429524,0,116.067,68.8667)"
font-family="MS Shell Dlg 2" font-size="7.875" font-weight="400" font-style="normal" 
>
</g>

<g fill="none" stroke="#000000" stroke-opacity="1" stroke-width="1" stroke-linecap="square" stroke-linejoin="bevel" transform="matrix(0,-0.0429524,0.0429524,0,116.067,68.8667)"
font-family="MS Shell Dlg 2" font-size="7.875" font-weight="400" font-style="normal" 
>
</g>

<g fill="#ff00ff" fill-opacity="1" stroke="#ff00ff" stroke-opacity="1" stroke-width="0.944882" stroke-linecap="square" stroke-linejoin="miter" stroke-miterlimit="2" transform="matrix(0,-0.0429524,0.0429524,0,116.067,68.8667)"
font-family="MS Shell Dlg 2" font-size="7.875" font-weight="400" font-style="normal" 
>
<path vector-effect="non-scaling-stroke" fill-rule="evenodd" d="M-100,100 L100,0 L-100,-100 L-100,100"/>
</g>

<g fill="none" stroke="#000000" stroke-opacity="1" stroke-width="1" stroke-linecap="square" stroke-linejoin="bevel" transform="matrix(0,-0.0429524,0.0429524,0,116.067,68.8667)"
font-family="MS Shell Dlg 2" font-size="7.875" font-weight="400" font-style="normal" 
>
</g>

<g fill="none" stroke="#000000" stroke-opacity="1" stroke-width="1" stroke-linecap="square" stroke-linejoin="bevel" transform="matrix(1,0,0,1,94.5905,64.5714)"
font-family="MS Shell Dlg 2" font-size="7.875" font-weight="400" font-style="normal" 
>
</g>

<g fill="#000000" fill-opacity="0" stroke="#000000" stroke-opacity="0" stroke-width="1" stroke-linecap="square" stroke-linejoin="bevel" transform="matrix(1,0,0,1,94.5905,64.5714)"
font-family="MS Shell Dlg 2" font-size="7.875" font-weight="400" font-style="normal" 
>
<rect x="-3" y="-3" width="6" height="6"/>
</g>

<g fill="none" stroke="#000000" stroke-opacity="1" stroke-width="1" stroke-linecap="square" stroke-linejoin="bevel" transform="matrix(1,0,0,1,94.5905,64.5714)"
font-family="MS Shell Dlg 2" font-size="7.875" font-weight="400" font-style="normal" 
>
</g>

<g fill="none" stroke="#000000" stroke-opacity="1" stroke-width="1" stroke-linecap="square" stroke-linejoin="bevel" transform="matrix(1,0,0,1,94.5905,21.619)"
font-family="MS Shell Dlg 2" font-size="7.875" font-weight="400" font-style="normal" 
>
</g>

<g fill="#000000" fill-opacity="0" stroke="#000000" stroke-opacity="0" stroke-width="1" stroke-linecap="square" stroke-linejoin="bevel" transform="matrix(1,0,0,1,94.5905,21.619)"
font-family="MS Shell Dlg 2" font-size="7.875" font-weight="400" font-style="normal" 
>
<rect x="-3" y="-3" width="6" height="6"/>
</g>

<g fill="none" stroke="#000000" stroke-opacity="1" stroke-width="1" stroke-linecap="square" stroke-linejoin="bevel" transform="matrix(1,0,0,1,94.5905,21.619)"
font-family="MS Shell Dlg 2" font-size="7.875" font-weight="400" font-style="normal" 
>
</g>

<g fill="none" stroke="#000000" stroke-opacity="1" stroke-width="1" stroke-linecap="square" stroke-linejoin="bevel" transform="matrix(1,0,0,1,137.543,21.619)"
font-family="MS Shell Dlg 2" font-size="7.875" font-weight="400" font-style="normal" 
>
</g>

<g fill="#000000" fill-opacity="0" stroke="#000000" stroke-opacity="0" stroke-width="1" stroke-linecap="square" stroke-linejoin="bevel" transform="matrix(1,0,0,1,137.543,21.619)"
font-family="MS Shell Dlg 2" font-size="7.875" font-weight="400" font-style="normal" 
>
<rect x="-3" y="-3" width="6" height="6"/>
</g>

<g fill="none" stroke="#000000" stroke-opacity="1" stroke-width="1" stroke-linecap="square" stroke-linejoin="bevel" transform="matrix(1,0,0,1,137.543,21.619)"
font-family="MS Shell Dlg 2" font-size="7.875" font-weight="400" font-style="normal" 
>
</g>

<g fill="none" stroke="#000000" stroke-opacity="1" stroke-width="1" stroke-linecap="square" stroke-linejoin="bevel" transform="matrix(1,0,0,1,137.543,64.5714)"
font-family="MS Shell Dlg 2" font-size="7.875" font-weight="400" font-style="normal" 
>
</g>

<g fill="#000000" fill-opacity="0" stroke="#000000" stroke-opacity="0" stroke-width="1" stroke-linecap="square" stroke-linejoin="bevel" transform="matrix(1,0,0,1,137.543,64.5714)"
font-family="MS Shell Dlg 2" font-size="7.875" font-weight="400" font-style="normal" 
>
<rect x="-3" y="-3" width="6" height="6"/>
</g>

<g fill="none" stroke="#000000" stroke-opacity="1" stroke-width="1" stroke-linecap="square" stroke-linejoin="bevel" transform="matrix(1,0,0,1,137.543,64.5714)"
font-family="MS Shell Dlg 2" font-size="7.875" font-weight="400" font-style="normal" 
>
</g>

<g fill="none" stroke="#000000" stroke-opacity="1" stroke-width="1" stroke-linecap="square" stroke-linejoin="bevel" transform="matrix(0.214762,0,0,-0.214762,43.0476,111.819)"
font-family="MS Shell Dlg 2" font-size="7.875" font-weight="400" font-style="normal" 
>
</g>

<g fill="none" stroke="#000000" stroke-opacity="1" stroke-width="1" stroke-linecap="square" stroke-linejoin="bevel" transform="matrix(0.214762,0,0,-0.214762,43.0476,111.819)"
font-family="MS Shell Dlg 2" font-size="7.875" font-weight="400" font-style="normal" 
>
</g>

<g fill="none" stroke="#000000" stroke-opacity="1" stroke-width="1" stroke-linecap="square" stroke-linejoin="bevel" transform="matrix(0.214762,0,0,-0.214762,43.0476,111.819)"
font-family="MS Shell Dlg 2" font-size="7.875" font-weight="400" font-style="normal" 
>
</g>

<g fill="none" stroke="#000000" stroke-opacity="1" stroke-width="1" stroke-linecap="square" stroke-linejoin="bevel" transform="matrix(0.214762,0,0,-0.214762,43.0476,111.819)"
font-family="MS Shell Dlg 2" font-size="7.875" font-weight="400" font-style="normal" 
>
</g>

<g fill="none" stroke="#000000" stroke-opacity="1" stroke-width="1" stroke-linecap="square" stroke-linejoin="bevel" transform="matrix(0.214762,0,0,-0.214762,43.0476,111.819)"
font-family="MS Shell Dlg 2" font-size="7.875" font-weight="400" font-style="normal" 
>
</g>

<g fill="none" stroke="#000000" stroke-opacity="1" stroke-width="1" stroke-linecap="square" stroke-linejoin="bevel" transform="matrix(0.214762,0,0,-0.214762,43.0476,111.819)"
font-family="MS Shell Dlg 2" font-size="7.875" font-weight="400" font-style="normal" 
>
</g>

<g fill="none" stroke="#000000" stroke-opacity="1" stroke-width="1" stroke-linecap="square" stroke-linejoin="bevel" transform="matrix(0.214762,0,0,0.214762,43.0476,111.819)"
font-family="MS Shell Dlg 2" font-size="7.875" font-weight="400" font-style="normal" 
>
</g>

<g fill="#d2d2d2" fill-opacity="1" stroke="#000000" stroke-opacity="1" stroke-width="0.944882" stroke-linecap="square" stroke-linejoin="miter" stroke-miterlimit="2" transform="matrix(0.214762,0,0,0.214762,43.0476,111.819)"
font-family="MS Shell Dlg 2" font-size="7.875" font-weight="400" font-style="normal" 
>
<rect vector-effect="non-scaling-stroke" x="-100" y="-100" width="200" height="200"/>
</g>

<g fill="none" stroke="#000000" stroke-opacity="1" stroke-width="1" stroke-linecap="square" stroke-linejoin="bevel" transform="matrix(0.214762,0,0,0.214762,43.0476,111.819)"
font-family="MS Shell Dlg 2" font-size="7.875" font-weight="400" font-style="normal" 
>
</g>

<g fill="none" stroke="#000000" stroke-opacity="1" stroke-width="1" stroke-linecap="square" stroke-linejoin="bevel" transform="matrix(0.214762,0,0,0.214762,43.0476,55.981)"
font-family="MS Shell Dlg 2" font-size="7.875" font-weight="400" font-style="normal" 
>
</g>

<g fill="none" stroke="#0000ff" stroke-opacity="1" stroke-width="0.944882" stroke-linecap="square" stroke-linejoin="miter" stroke-miterlimit="2" transform="matrix(1,0,0,1,43.0476,55.981)"
font-family="MS Shell Dlg 2" font-size="8" font-weight="400" font-style="normal" 
>
<text fill="#0000ff" fill-opacity="1" stroke="none" xml:space="preserve" x="-29.4531" y="31.0938" font-family="MS Shell Dlg 2" font-size="8" font-weight="400" font-style="normal" 
 >booleanConstant</text>
</g>

<g fill="none" stroke="#000000" stroke-opacity="1" stroke-width="1" stroke-linecap="square" stroke-linejoin="bevel" transform="matrix(0.214762,0,0,0.214762,43.0476,55.981)"
font-family="MS Shell Dlg 2" font-size="7.875" font-weight="400" font-style="normal" 
>
</g>

<g fill="none" stroke="#000000" stroke-opacity="1" stroke-width="1" stroke-linecap="square" stroke-linejoin="bevel" transform="matrix(0.214762,0,0,-0.214762,43.0476,111.819)"
font-family="MS Shell Dlg 2" font-size="7.875" font-weight="400" font-style="normal" 
>
</g>

<g fill="#ff00ff" fill-opacity="1" stroke="#ff00ff" stroke-opacity="1" stroke-width="0.944882" stroke-linecap="square" stroke-linejoin="miter" stroke-miterlimit="2" transform="matrix(0.214762,0,0,-0.214762,43.0476,111.819)"
font-family="MS Shell Dlg 2" font-size="7.875" font-weight="400" font-style="normal" 
>
<path vector-effect="non-scaling-stroke" fill-rule="evenodd" d="M-80,88 L-88,66 L-72,66 L-80,88"/>
</g>

<g fill="none" stroke="#000000" stroke-opacity="1" stroke-width="1" stroke-linecap="square" stroke-linejoin="bevel" transform="matrix(0.214762,0,0,-0.214762,43.0476,111.819)"
font-family="MS Shell Dlg 2" font-size="7.875" font-weight="400" font-style="normal" 
>
</g>

<g fill="none" stroke="#000000" stroke-opacity="1" stroke-width="1" stroke-linecap="square" stroke-linejoin="bevel" transform="matrix(0.214762,0,0,-0.214762,43.0476,111.819)"
font-family="MS Shell Dlg 2" font-size="7.875" font-weight="400" font-style="normal" 
>
</g>

<g fill="none" stroke="#ff00ff" stroke-opacity="1" stroke-width="0.944882" stroke-linecap="square" stroke-linejoin="bevel" transform="matrix(0.214762,0,0,-0.214762,43.0476,111.819)"
font-family="MS Shell Dlg 2" font-size="7.875" font-weight="400" font-style="normal" 
>
<path vector-effect="non-scaling-stroke" fill-rule="evenodd" d="M-80,66 L-80,-82"/>
</g>

<g fill="none" stroke="#000000" stroke-opacity="1" stroke-width="1" stroke-linecap="square" stroke-linejoin="bevel" transform="matrix(0.214762,0,0,-0.214762,43.0476,111.819)"
font-family="MS Shell Dlg 2" font-size="7.875" font-weight="400" font-style="normal" 
>
</g>

<g fill="none" stroke="#000000" stroke-opacity="1" stroke-width="1" stroke-linecap="square" stroke-linejoin="bevel" transform="matrix(0.214762,0,0,-0.214762,43.0476,111.819)"
font-family="MS Shell Dlg 2" font-size="7.875" font-weight="400" font-style="normal" 
>
</g>

<g fill="none" stroke="#ff00ff" stroke-opacity="1" stroke-width="0.944882" stroke-linecap="square" stroke-linejoin="bevel" transform="matrix(0.214762,0,0,-0.214762,43.0476,111.819)"
font-family="MS Shell Dlg 2" font-size="7.875" font-weight="400" font-style="normal" 
>
<path vector-effect="non-scaling-stroke" fill-rule="evenodd" d="M-90,-70 L72,-70"/>
</g>

<g fill="none" stroke="#000000" stroke-opacity="1" stroke-width="1" stroke-linecap="square" stroke-linejoin="bevel" transform="matrix(0.214762,0,0,-0.214762,43.0476,111.819)"
font-family="MS Shell Dlg 2" font-size="7.875" font-weight="400" font-style="normal" 
>
</g>

<g fill="none" stroke="#000000" stroke-opacity="1" stroke-width="1" stroke-linecap="square" stroke-linejoin="bevel" transform="matrix(0.214762,0,0,-0.214762,43.0476,111.819)"
font-family="MS Shell Dlg 2" font-size="7.875" font-weight="400" font-style="normal" 
>
</g>

<g fill="#ff00ff" fill-opacity="1" stroke="#ff00ff" stroke-opacity="1" stroke-width="0.944882" stroke-linecap="square" stroke-linejoin="miter" stroke-miterlimit="2" transform="matrix(0.214762,0,0,-0.214762,43.0476,111.819)"
font-family="MS Shell Dlg 2" font-size="7.875" font-weight="400" font-style="normal" 
>
<path vector-effect="non-scaling-stroke" fill-rule="evenodd" d="M90,-70 L68,-62 L68,-78 L90,-70"/>
</g>

<g fill="none" stroke="#000000" stroke-opacity="1" stroke-width="1" stroke-linecap="square" stroke-linejoin="bevel" transform="matrix(0.214762,0,0,-0.214762,43.0476,111.819)"
font-family="MS Shell Dlg 2" font-size="7.875" font-weight="400" font-style="normal" 
>
</g>

<g fill="none" stroke="#000000" stroke-opacity="1" stroke-width="1" stroke-linecap="square" stroke-linejoin="bevel" transform="matrix(0.214762,0,0,0.214762,43.0476,111.819)"
font-family="MS Shell Dlg 2" font-size="7.875" font-weight="400" font-style="normal" 
>
</g>

<g fill="#ebebeb" fill-opacity="1" stroke="#ebebeb" stroke-opacity="1" stroke-width="0.944882" stroke-linecap="square" stroke-linejoin="miter" stroke-miterlimit="2" transform="matrix(0.214762,0,0,-0.214762,43.0476,111.819)"
font-family="MS Shell Dlg 2" font-size="7.875" font-weight="400" font-style="normal" 
>
<path vector-effect="non-scaling-stroke" fill-rule="evenodd" d="M85,0 C85,-3.86599 81.866,-7 78,-7 C74.134,-7 71,-3.86599 71,0 C71,3.86599 74.134,7 78,7 C81.866,7 85,3.86599 85,0 "/>
</g>

<g fill="none" stroke="#000000" stroke-opacity="1" stroke-width="1" stroke-linecap="square" stroke-linejoin="bevel" transform="matrix(0.214762,0,0,0.214762,43.0476,111.819)"
font-family="MS Shell Dlg 2" font-size="7.875" font-weight="400" font-style="normal" 
>
</g>

<g fill="none" stroke="#000000" stroke-opacity="1" stroke-width="1" stroke-linecap="square" stroke-linejoin="bevel" transform="matrix(0.214762,0,0,-0.214762,43.0476,111.819)"
font-family="MS Shell Dlg 2" font-size="7.875" font-weight="400" font-style="normal" 
>
</g>

<g fill="none" stroke="#000000" stroke-opacity="1" stroke-width="0.944882" stroke-linecap="square" stroke-linejoin="bevel" transform="matrix(0.214762,0,0,-0.214762,43.0476,111.819)"
font-family="MS Shell Dlg 2" font-size="7.875" font-weight="400" font-style="normal" 
>
<path vector-effect="non-scaling-stroke" fill-rule="evenodd" d="M-80,0 L80,0"/>
</g>

<g fill="none" stroke="#000000" stroke-opacity="1" stroke-width="1" stroke-linecap="square" stroke-linejoin="bevel" transform="matrix(0.214762,0,0,-0.214762,43.0476,111.819)"
font-family="MS Shell Dlg 2" font-size="7.875" font-weight="400" font-style="normal" 
>
</g>

<g fill="none" stroke="#000000" stroke-opacity="1" stroke-width="1" stroke-linecap="square" stroke-linejoin="bevel" transform="matrix(0.214762,0,0,-0.214762,43.0476,111.819)"
font-family="MS Shell Dlg 2" font-size="7.875" font-weight="400" font-style="normal" 
>
</g>

<g fill="none" stroke="#000000" stroke-opacity="1" stroke-width="0.944882" stroke-linecap="square" stroke-linejoin="miter" stroke-miterlimit="2" transform="matrix(1,0,0,1,43.0476,111.819)"
font-family="MS Shell Dlg 2" font-size="8" font-weight="400" font-style="normal" 
>
<text fill="#000000" fill-opacity="1" stroke="none" xml:space="preserve" x="-7.09375" y="30.0156" font-family="MS Shell Dlg 2" font-size="8" font-weight="400" font-style="normal" 
 >true</text>
</g>

<g fill="none" stroke="#000000" stroke-opacity="1" stroke-width="1" stroke-linecap="square" stroke-linejoin="bevel" transform="matrix(0.214762,0,0,-0.214762,43.0476,111.819)"
font-family="MS Shell Dlg 2" font-size="7.875" font-weight="400" font-style="normal" 
>
</g>

<g fill="none" stroke="#000000" stroke-opacity="1" stroke-width="1" stroke-linecap="square" stroke-linejoin="bevel" transform="matrix(0.0214762,0,0,-0.0214762,66.6714,111.819)"
font-family="MS Shell Dlg 2" font-size="7.875" font-weight="400" font-style="normal" 
>
</g>

<g fill="none" stroke="#000000" stroke-opacity="1" stroke-width="1" stroke-linecap="square" stroke-linejoin="bevel" transform="matrix(0.0214762,0,0,-0.0214762,66.6714,111.819)"
font-family="MS Shell Dlg 2" font-size="7.875" font-weight="400" font-style="normal" 
>
</g>

<g fill="none" stroke="#000000" stroke-opacity="1" stroke-width="1" stroke-linecap="square" stroke-linejoin="bevel" transform="matrix(0.0214762,0,0,-0.0214762,66.6714,111.819)"
font-family="MS Shell Dlg 2" font-size="7.875" font-weight="400" font-style="normal" 
>
</g>

<g fill="#ffffff" fill-opacity="1" stroke="#ff00ff" stroke-opacity="1" stroke-width="0.944882" stroke-linecap="square" stroke-linejoin="miter" stroke-miterlimit="2" transform="matrix(0.0214762,0,0,-0.0214762,66.6714,111.819)"
font-family="MS Shell Dlg 2" font-size="7.875" font-weight="400" font-style="normal" 
>
<path vector-effect="non-scaling-stroke" fill-rule="evenodd" d="M-100,100 L100,0 L-100,-100 L-100,100"/>
</g>

<g fill="none" stroke="#000000" stroke-opacity="1" stroke-width="1" stroke-linecap="square" stroke-linejoin="bevel" transform="matrix(0.0214762,0,0,-0.0214762,66.6714,111.819)"
font-family="MS Shell Dlg 2" font-size="7.875" font-weight="400" font-style="normal" 
>
</g>

<g fill="none" stroke="#000000" stroke-opacity="1" stroke-width="1" stroke-linecap="square" stroke-linejoin="bevel" transform="matrix(1,0,0,1,21.5714,133.295)"
font-family="MS Shell Dlg 2" font-size="7.875" font-weight="400" font-style="normal" 
>
</g>

<g fill="#000000" fill-opacity="0" stroke="#000000" stroke-opacity="0" stroke-width="1" stroke-linecap="square" stroke-linejoin="bevel" transform="matrix(1,0,0,1,21.5714,133.295)"
font-family="MS Shell Dlg 2" font-size="7.875" font-weight="400" font-style="normal" 
>
<rect x="-3" y="-3" width="6" height="6"/>
</g>

<g fill="none" stroke="#000000" stroke-opacity="1" stroke-width="1" stroke-linecap="square" stroke-linejoin="bevel" transform="matrix(1,0,0,1,21.5714,133.295)"
font-family="MS Shell Dlg 2" font-size="7.875" font-weight="400" font-style="normal" 
>
</g>

<g fill="none" stroke="#000000" stroke-opacity="1" stroke-width="1" stroke-linecap="square" stroke-linejoin="bevel" transform="matrix(1,0,0,1,21.5714,90.3429)"
font-family="MS Shell Dlg 2" font-size="7.875" font-weight="400" font-style="normal" 
>
</g>

<g fill="#000000" fill-opacity="0" stroke="#000000" stroke-opacity="0" stroke-width="1" stroke-linecap="square" stroke-linejoin="bevel" transform="matrix(1,0,0,1,21.5714,90.3429)"
font-family="MS Shell Dlg 2" font-size="7.875" font-weight="400" font-style="normal" 
>
<rect x="-3" y="-3" width="6" height="6"/>
</g>

<g fill="none" stroke="#000000" stroke-opacity="1" stroke-width="1" stroke-linecap="square" stroke-linejoin="bevel" transform="matrix(1,0,0,1,21.5714,90.3429)"
font-family="MS Shell Dlg 2" font-size="7.875" font-weight="400" font-style="normal" 
>
</g>

<g fill="none" stroke="#000000" stroke-opacity="1" stroke-width="1" stroke-linecap="square" stroke-linejoin="bevel" transform="matrix(1,0,0,1,64.5238,90.3429)"
font-family="MS Shell Dlg 2" font-size="7.875" font-weight="400" font-style="normal" 
>
</g>

<g fill="#000000" fill-opacity="0" stroke="#000000" stroke-opacity="0" stroke-width="1" stroke-linecap="square" stroke-linejoin="bevel" transform="matrix(1,0,0,1,64.5238,90.3429)"
font-family="MS Shell Dlg 2" font-size="7.875" font-weight="400" font-style="normal" 
>
<rect x="-3" y="-3" width="6" height="6"/>
</g>

<g fill="none" stroke="#000000" stroke-opacity="1" stroke-width="1" stroke-linecap="square" stroke-linejoin="bevel" transform="matrix(1,0,0,1,64.5238,90.3429)"
font-family="MS Shell Dlg 2" font-size="7.875" font-weight="400" font-style="normal" 
>
</g>

<g fill="none" stroke="#000000" stroke-opacity="1" stroke-width="1" stroke-linecap="square" stroke-linejoin="bevel" transform="matrix(1,0,0,1,64.5238,133.295)"
font-family="MS Shell Dlg 2" font-size="7.875" font-weight="400" font-style="normal" 
>
</g>

<g fill="#000000" fill-opacity="0" stroke="#000000" stroke-opacity="0" stroke-width="1" stroke-linecap="square" stroke-linejoin="bevel" transform="matrix(1,0,0,1,64.5238,133.295)"
font-family="MS Shell Dlg 2" font-size="7.875" font-weight="400" font-style="normal" 
>
<rect x="-3" y="-3" width="6" height="6"/>
</g>

<g fill="none" stroke="#000000" stroke-opacity="1" stroke-width="1" stroke-linecap="square" stroke-linejoin="bevel" transform="matrix(1,0,0,1,64.5238,133.295)"
font-family="MS Shell Dlg 2" font-size="7.875" font-weight="400" font-style="normal" 
>
</g>

<g fill="none" stroke="#000000" stroke-opacity="1" stroke-width="1" stroke-linecap="square" stroke-linejoin="bevel" transform="matrix(0.214762,0,0,-0.214762,43.0476,43.0952)"
font-family="MS Shell Dlg 2" font-size="7.875" font-weight="400" font-style="normal" 
>
</g>

<g fill="none" stroke="#000000" stroke-opacity="1" stroke-width="1" stroke-linecap="square" stroke-linejoin="bevel" transform="matrix(0.214762,0,0,-0.214762,43.0476,43.0952)"
font-family="MS Shell Dlg 2" font-size="7.875" font-weight="400" font-style="normal" 
>
</g>

<g fill="none" stroke="#000000" stroke-opacity="1" stroke-width="1" stroke-linecap="square" stroke-linejoin="bevel" transform="matrix(0.214762,0,0,-0.214762,43.0476,43.0952)"
font-family="MS Shell Dlg 2" font-size="7.875" font-weight="400" font-style="normal" 
>
</g>

<g fill="none" stroke="#000000" stroke-opacity="1" stroke-width="1" stroke-linecap="square" stroke-linejoin="bevel" transform="matrix(0.214762,0,0,-0.214762,43.0476,43.0952)"
font-family="MS Shell Dlg 2" font-size="7.875" font-weight="400" font-style="normal" 
>
</g>

<g fill="none" stroke="#000000" stroke-opacity="1" stroke-width="1" stroke-linecap="square" stroke-linejoin="bevel" transform="matrix(0.214762,0,0,-0.214762,43.0476,43.0952)"
font-family="MS Shell Dlg 2" font-size="7.875" font-weight="400" font-style="normal" 
>
</g>

<g fill="none" stroke="#000000" stroke-opacity="1" stroke-width="1" stroke-linecap="square" stroke-linejoin="bevel" transform="matrix(0.214762,0,0,-0.214762,43.0476,43.0952)"
font-family="MS Shell Dlg 2" font-size="7.875" font-weight="400" font-style="normal" 
>
</g>

<g fill="none" stroke="#000000" stroke-opacity="1" stroke-width="1" stroke-linecap="square" stroke-linejoin="bevel" transform="matrix(0.214762,0,0,-0.214762,43.0476,43.0952)"
font-family="MS Shell Dlg 2" font-size="7.875" font-weight="400" font-style="normal" 
>
</g>

<g fill="none" stroke="#000000" stroke-opacity="1" stroke-width="1" stroke-linecap="square" stroke-linejoin="bevel" transform="matrix(0.214762,0,0,-0.214762,43.0476,43.0952)"
font-family="MS Shell Dlg 2" font-size="7.875" font-weight="400" font-style="normal" 
>
</g>

<g fill="none" stroke="#000000" stroke-opacity="1" stroke-width="1" stroke-linecap="square" stroke-linejoin="bevel" transform="matrix(0.214762,0,0,-0.214762,43.0476,43.0952)"
font-family="MS Shell Dlg 2" font-size="7.875" font-weight="400" font-style="normal" 
>
</g>

<g fill="#ffffff" fill-opacity="1" stroke="#00007f" stroke-opacity="1" stroke-width="0.944882" stroke-linecap="square" stroke-linejoin="miter" stroke-miterlimit="2" transform="matrix(0.214762,0,0,-0.214762,43.0476,43.0952)"
font-family="MS Shell Dlg 2" font-size="7.875" font-weight="400" font-style="normal" 
>
<rect vector-effect="non-scaling-stroke" x="-100" y="-100" width="200" height="200"/>
</g>

<g fill="none" stroke="#000000" stroke-opacity="1" stroke-width="1" stroke-linecap="square" stroke-linejoin="bevel" transform="matrix(0.214762,0,0,-0.214762,43.0476,43.0952)"
font-family="MS Shell Dlg 2" font-size="7.875" font-weight="400" font-style="normal" 
>
</g>

<g fill="none" stroke="#000000" stroke-opacity="1" stroke-width="1" stroke-linecap="square" stroke-linejoin="bevel" transform="matrix(0.214762,0,0,0.214762,43.0476,-12.7429)"
font-family="MS Shell Dlg 2" font-size="7.875" font-weight="400" font-style="normal" 
>
</g>

<g fill="none" stroke="#0000ff" stroke-opacity="1" stroke-width="0.944882" stroke-linecap="square" stroke-linejoin="miter" stroke-miterlimit="2" transform="matrix(1,0,0,1,43.0476,-12.7429)"
font-family="MS Shell Dlg 2" font-size="8" font-weight="400" font-style="normal" 
>
<text fill="#0000ff" fill-opacity="1" stroke="none" xml:space="preserve" x="-7.01563" y="31.0938" font-family="MS Shell Dlg 2" font-size="8" font-weight="400" font-style="normal" 
 >sine</text>
</g>

<g fill="none" stroke="#000000" stroke-opacity="1" stroke-width="1" stroke-linecap="square" stroke-linejoin="bevel" transform="matrix(0.214762,0,0,0.214762,43.0476,-12.7429)"
font-family="MS Shell Dlg 2" font-size="7.875" font-weight="400" font-style="normal" 
>
</g>

<g fill="none" stroke="#000000" stroke-opacity="1" stroke-width="1" stroke-linecap="square" stroke-linejoin="bevel" transform="matrix(0.214762,0,0,-0.214762,43.0476,43.0952)"
font-family="MS Shell Dlg 2" font-size="7.875" font-weight="400" font-style="normal" 
>
</g>

<g fill="none" stroke="#c0c0c0" stroke-opacity="1" stroke-width="0.944882" stroke-linecap="square" stroke-linejoin="bevel" transform="matrix(0.214762,0,0,-0.214762,43.0476,43.0952)"
font-family="MS Shell Dlg 2" font-size="7.875" font-weight="400" font-style="normal" 
>
<path vector-effect="non-scaling-stroke" fill-rule="evenodd" d="M-80,68 L-80,-80"/>
</g>

<g fill="none" stroke="#000000" stroke-opacity="1" stroke-width="1" stroke-linecap="square" stroke-linejoin="bevel" transform="matrix(0.214762,0,0,-0.214762,43.0476,43.0952)"
font-family="MS Shell Dlg 2" font-size="7.875" font-weight="400" font-style="normal" 
>
</g>

<g fill="none" stroke="#000000" stroke-opacity="1" stroke-width="1" stroke-linecap="square" stroke-linejoin="bevel" transform="matrix(0.214762,0,0,-0.214762,43.0476,43.0952)"
font-family="MS Shell Dlg 2" font-size="7.875" font-weight="400" font-style="normal" 
>
</g>

<g fill="#c0c0c0" fill-opacity="1" stroke="#c0c0c0" stroke-opacity="1" stroke-width="0.944882" stroke-linecap="square" stroke-linejoin="miter" stroke-miterlimit="2" transform="matrix(0.214762,0,0,-0.214762,43.0476,43.0952)"
font-family="MS Shell Dlg 2" font-size="7.875" font-weight="400" font-style="normal" 
>
<path vector-effect="non-scaling-stroke" fill-rule="evenodd" d="M-80,90 L-88,68 L-72,68 L-80,90"/>
</g>

<g fill="none" stroke="#000000" stroke-opacity="1" stroke-width="1" stroke-linecap="square" stroke-linejoin="bevel" transform="matrix(0.214762,0,0,-0.214762,43.0476,43.0952)"
font-family="MS Shell Dlg 2" font-size="7.875" font-weight="400" font-style="normal" 
>
</g>

<g fill="none" stroke="#000000" stroke-opacity="1" stroke-width="1" stroke-linecap="square" stroke-linejoin="bevel" transform="matrix(0.214762,0,0,-0.214762,43.0476,43.0952)"
font-family="MS Shell Dlg 2" font-size="7.875" font-weight="400" font-style="normal" 
>
</g>

<g fill="none" stroke="#c0c0c0" stroke-opacity="1" stroke-width="0.944882" stroke-linecap="square" stroke-linejoin="bevel" transform="matrix(0.214762,0,0,-0.214762,43.0476,43.0952)"
font-family="MS Shell Dlg 2" font-size="7.875" font-weight="400" font-style="normal" 
>
<path vector-effect="non-scaling-stroke" fill-rule="evenodd" d="M-90,0 L68,0"/>
</g>

<g fill="none" stroke="#000000" stroke-opacity="1" stroke-width="1" stroke-linecap="square" stroke-linejoin="bevel" transform="matrix(0.214762,0,0,-0.214762,43.0476,43.0952)"
font-family="MS Shell Dlg 2" font-size="7.875" font-weight="400" font-style="normal" 
>
</g>

<g fill="none" stroke="#000000" stroke-opacity="1" stroke-width="1" stroke-linecap="square" stroke-linejoin="bevel" transform="matrix(0.214762,0,0,-0.214762,43.0476,43.0952)"
font-family="MS Shell Dlg 2" font-size="7.875" font-weight="400" font-style="normal" 
>
</g>

<g fill="#c0c0c0" fill-opacity="1" stroke="#c0c0c0" stroke-opacity="1" stroke-width="0.944882" stroke-linecap="square" stroke-linejoin="miter" stroke-miterlimit="2" transform="matrix(0.214762,0,0,-0.214762,43.0476,43.0952)"
font-family="MS Shell Dlg 2" font-size="7.875" font-weight="400" font-style="normal" 
>
<path vector-effect="non-scaling-stroke" fill-rule="evenodd" d="M90,0 L68,8 L68,-8 L90,0"/>
</g>

<g fill="none" stroke="#000000" stroke-opacity="1" stroke-width="1" stroke-linecap="square" stroke-linejoin="bevel" transform="matrix(0.214762,0,0,-0.214762,43.0476,43.0952)"
font-family="MS Shell Dlg 2" font-size="7.875" font-weight="400" font-style="normal" 
>
</g>

<g fill="none" stroke="#000000" stroke-opacity="1" stroke-width="1" stroke-linecap="square" stroke-linejoin="bevel" transform="matrix(0.214762,0,0,-0.214762,43.0476,43.0952)"
font-family="MS Shell Dlg 2" font-size="7.875" font-weight="400" font-style="normal" 
>
</g>

<g fill="none" stroke="#000000" stroke-opacity="1" stroke-width="0.944882" stroke-linecap="square" stroke-linejoin="bevel" transform="matrix(0.214762,0,0,-0.214762,43.0476,43.0952)"
font-family="MS Shell Dlg 2" font-size="7.875" font-weight="400" font-style="normal" 
>
<path vector-effect="non-scaling-stroke" fill-rule="evenodd" d="M-80,0 L-74.35,17.1 C-74.35,17.1 -68.7,34.2 -65.1,43.65 C-65.1,43.65 -61.5,53.1 -58.3,59.75 C-58.3,59.75 -55.1,66.4 -52.25,70.5 C-52.25,70.5 -49.4,74.6 -46.6,76.85 C-46.6,76.85 -43.8,79.1 -41,79.45 C-41,79.45 -38.2,79.8 -35.4,78.2 C-35.4,78.2 -32.6,76.6 -29.75,73.15 C-29.75,73.15 -26.9,69.7 -24.1,64.55 C-24.1,64.55 -21.3,59.4 -18.1,51.75 C-18.1,51.75 -14.9,44.1 -10.865,32.65 C-10.865,32.65 -6.83,21.2 1.635,-4.8 C1.635,-4.8 10.1,-30.8 13.7,-40.5 C13.7,-40.5 17.3,-50.2 20.5,-57.2 C20.5,-57.2 23.7,-64.2 26.5,-68.65 C26.5,-68.65 29.3,-73.1 32.15,-75.75 C32.15,-75.75 35,-78.4 37.8,-79.2 C37.8,-79.2 40.6,-80 43.4,-78.8 C43.4,-78.8 46.2,-77.6 49.05,-74.55 C49.05,-74.55 51.9,-71.5 54.7,-66.7 C54.7,-66.7 57.5,-61.9 60.7,-54.55 C60.7,-54.55 63.9,-47.2 67.95,-36 C67.95,-36 72,-24.8 76,-12.4 L80,0"/>
</g>

<g fill="none" stroke="#000000" stroke-opacity="1" stroke-width="1" stroke-linecap="square" stroke-linejoin="bevel" transform="matrix(0.214762,0,0,-0.214762,43.0476,43.0952)"
font-family="MS Shell Dlg 2" font-size="7.875" font-weight="400" font-style="normal" 
>
</g>

<g fill="none" stroke="#000000" stroke-opacity="1" stroke-width="1" stroke-linecap="square" stroke-linejoin="bevel" transform="matrix(0.214762,0,0,-0.214762,43.0476,43.0952)"
font-family="MS Shell Dlg 2" font-size="7.875" font-weight="400" font-style="normal" 
>
</g>

<g fill="none" stroke="#000000" stroke-opacity="1" stroke-width="0.944882" stroke-linecap="square" stroke-linejoin="miter" stroke-miterlimit="2" transform="matrix(1,0,0,1,43.0476,43.0952)"
font-family="MS Shell Dlg 2" font-size="8" font-weight="400" font-style="normal" 
>
<text fill="#000000" fill-opacity="1" stroke="none" xml:space="preserve" x="-26" y="31.5156" font-family="MS Shell Dlg 2" font-size="8" font-weight="400" font-style="normal" 
 >freqHz=100 Hz</text>
</g>

<g fill="none" stroke="#000000" stroke-opacity="1" stroke-width="1" stroke-linecap="square" stroke-linejoin="bevel" transform="matrix(0.214762,0,0,-0.214762,43.0476,43.0952)"
font-family="MS Shell Dlg 2" font-size="7.875" font-weight="400" font-style="normal" 
>
</g>

<g fill="none" stroke="#000000" stroke-opacity="1" stroke-width="1" stroke-linecap="square" stroke-linejoin="bevel" transform="matrix(0.0214762,0,0,-0.0214762,66.6714,43.0952)"
font-family="MS Shell Dlg 2" font-size="7.875" font-weight="400" font-style="normal" 
>
</g>

<g fill="none" stroke="#000000" stroke-opacity="1" stroke-width="1" stroke-linecap="square" stroke-linejoin="bevel" transform="matrix(0.0214762,0,0,-0.0214762,66.6714,43.0952)"
font-family="MS Shell Dlg 2" font-size="7.875" font-weight="400" font-style="normal" 
>
</g>

<g fill="none" stroke="#000000" stroke-opacity="1" stroke-width="1" stroke-linecap="square" stroke-linejoin="bevel" transform="matrix(0.0214762,0,0,-0.0214762,66.6714,43.0952)"
font-family="MS Shell Dlg 2" font-size="7.875" font-weight="400" font-style="normal" 
>
</g>

<g fill="#ffffff" fill-opacity="1" stroke="#00007f" stroke-opacity="1" stroke-width="0.944882" stroke-linecap="square" stroke-linejoin="miter" stroke-miterlimit="2" transform="matrix(0.0214762,0,0,-0.0214762,66.6714,43.0952)"
font-family="MS Shell Dlg 2" font-size="7.875" font-weight="400" font-style="normal" 
>
<path vector-effect="non-scaling-stroke" fill-rule="evenodd" d="M-100,100 L100,0 L-100,-100 L-100,100"/>
</g>

<g fill="none" stroke="#000000" stroke-opacity="1" stroke-width="1" stroke-linecap="square" stroke-linejoin="bevel" transform="matrix(0.0214762,0,0,-0.0214762,66.6714,43.0952)"
font-family="MS Shell Dlg 2" font-size="7.875" font-weight="400" font-style="normal" 
>
</g>

<g fill="none" stroke="#000000" stroke-opacity="1" stroke-width="1" stroke-linecap="square" stroke-linejoin="bevel" transform="matrix(1,0,0,1,21.5714,64.5714)"
font-family="MS Shell Dlg 2" font-size="7.875" font-weight="400" font-style="normal" 
>
</g>

<g fill="#000000" fill-opacity="0" stroke="#000000" stroke-opacity="0" stroke-width="1" stroke-linecap="square" stroke-linejoin="bevel" transform="matrix(1,0,0,1,21.5714,64.5714)"
font-family="MS Shell Dlg 2" font-size="7.875" font-weight="400" font-style="normal" 
>
<rect x="-3" y="-3" width="6" height="6"/>
</g>

<g fill="none" stroke="#000000" stroke-opacity="1" stroke-width="1" stroke-linecap="square" stroke-linejoin="bevel" transform="matrix(1,0,0,1,21.5714,64.5714)"
font-family="MS Shell Dlg 2" font-size="7.875" font-weight="400" font-style="normal" 
>
</g>

<g fill="none" stroke="#000000" stroke-opacity="1" stroke-width="1" stroke-linecap="square" stroke-linejoin="bevel" transform="matrix(1,0,0,1,21.5714,21.619)"
font-family="MS Shell Dlg 2" font-size="7.875" font-weight="400" font-style="normal" 
>
</g>

<g fill="#000000" fill-opacity="0" stroke="#000000" stroke-opacity="0" stroke-width="1" stroke-linecap="square" stroke-linejoin="bevel" transform="matrix(1,0,0,1,21.5714,21.619)"
font-family="MS Shell Dlg 2" font-size="7.875" font-weight="400" font-style="normal" 
>
<rect x="-3" y="-3" width="6" height="6"/>
</g>

<g fill="none" stroke="#000000" stroke-opacity="1" stroke-width="1" stroke-linecap="square" stroke-linejoin="bevel" transform="matrix(1,0,0,1,21.5714,21.619)"
font-family="MS Shell Dlg 2" font-size="7.875" font-weight="400" font-style="normal" 
>
</g>

<g fill="none" stroke="#000000" stroke-opacity="1" stroke-width="1" stroke-linecap="square" stroke-linejoin="bevel" transform="matrix(1,0,0,1,64.5238,21.619)"
font-family="MS Shell Dlg 2" font-size="7.875" font-weight="400" font-style="normal" 
>
</g>

<g fill="#000000" fill-opacity="0" stroke="#000000" stroke-opacity="0" stroke-width="1" stroke-linecap="square" stroke-linejoin="bevel" transform="matrix(1,0,0,1,64.5238,21.619)"
font-family="MS Shell Dlg 2" font-size="7.875" font-weight="400" font-style="normal" 
>
<rect x="-3" y="-3" width="6" height="6"/>
</g>

<g fill="none" stroke="#000000" stroke-opacity="1" stroke-width="1" stroke-linecap="square" stroke-linejoin="bevel" transform="matrix(1,0,0,1,64.5238,21.619)"
font-family="MS Shell Dlg 2" font-size="7.875" font-weight="400" font-style="normal" 
>
</g>

<g fill="none" stroke="#000000" stroke-opacity="1" stroke-width="1" stroke-linecap="square" stroke-linejoin="bevel" transform="matrix(1,0,0,1,64.5238,64.5714)"
font-family="MS Shell Dlg 2" font-size="7.875" font-weight="400" font-style="normal" 
>
</g>

<g fill="#000000" fill-opacity="0" stroke="#000000" stroke-opacity="0" stroke-width="1" stroke-linecap="square" stroke-linejoin="bevel" transform="matrix(1,0,0,1,64.5238,64.5714)"
font-family="MS Shell Dlg 2" font-size="7.875" font-weight="400" font-style="normal" 
>
<rect x="-3" y="-3" width="6" height="6"/>
</g>

<g fill="none" stroke="#000000" stroke-opacity="1" stroke-width="1" stroke-linecap="square" stroke-linejoin="bevel" transform="matrix(1,0,0,1,64.5238,64.5714)"
font-family="MS Shell Dlg 2" font-size="7.875" font-weight="400" font-style="normal" 
>
</g>

<g fill="none" stroke="#000000" stroke-opacity="1" stroke-width="1" stroke-linecap="square" stroke-linejoin="bevel" transform="matrix(2.14762,0,0,-2.14762,86,129)"
font-family="MS Shell Dlg 2" font-size="7.875" font-weight="400" font-style="normal" 
>
</g>

<g fill="none" stroke="#000000" stroke-opacity="0" stroke-width="1" stroke-linecap="square" stroke-linejoin="bevel" transform="matrix(2.14762,0,0,-2.14762,86,129)"
font-family="MS Shell Dlg 2" font-size="7.875" font-weight="400" font-style="normal" 
>
<polyline fill="none" vector-effect="none" points="-1,0 1,0 " />
<polyline fill="none" vector-effect="none" points="0,-1 0,1 " />
</g>

<g fill="none" stroke="#000000" stroke-opacity="1" stroke-width="1" stroke-linecap="square" stroke-linejoin="bevel" transform="matrix(2.14762,0,0,-2.14762,86,129)"
font-family="MS Shell Dlg 2" font-size="7.875" font-weight="400" font-style="normal" 
>
</g>

<g fill="none" stroke="#000000" stroke-opacity="1" stroke-width="1" stroke-linecap="square" stroke-linejoin="bevel" transform="matrix(2.14762,0,0,-2.14762,86,129)"
font-family="MS Shell Dlg 2" font-size="7.875" font-weight="400" font-style="normal" 
>
</g>

<g fill="none" stroke="#000000" stroke-opacity="0" stroke-width="1" stroke-linecap="square" stroke-linejoin="bevel" transform="matrix(2.14762,0,0,-2.14762,86,129)"
font-family="MS Shell Dlg 2" font-size="7.875" font-weight="400" font-style="normal" 
>
<polyline fill="none" vector-effect="none" points="-1,0 1,0 " />
<polyline fill="none" vector-effect="none" points="0,-1 0,1 " />
</g>

<g fill="none" stroke="#000000" stroke-opacity="1" stroke-width="1" stroke-linecap="square" stroke-linejoin="bevel" transform="matrix(2.14762,0,0,-2.14762,86,129)"
font-family="MS Shell Dlg 2" font-size="7.875" font-weight="400" font-style="normal" 
>
</g>

<g fill="none" stroke="#000000" stroke-opacity="1" stroke-width="1" stroke-linecap="square" stroke-linejoin="bevel" transform="matrix(2.14762,0,0,-2.14762,86,129)"
font-family="MS Shell Dlg 2" font-size="7.875" font-weight="400" font-style="normal" 
>
</g>

<g fill="none" stroke="#000000" stroke-opacity="0" stroke-width="1" stroke-linecap="square" stroke-linejoin="bevel" transform="matrix(2.14762,0,0,-2.14762,86,129)"
font-family="MS Shell Dlg 2" font-size="7.875" font-weight="400" font-style="normal" 
>
<polyline fill="none" vector-effect="none" points="-1,0 1,0 " />
<polyline fill="none" vector-effect="none" points="0,-1 0,1 " />
</g>

<g fill="none" stroke="#000000" stroke-opacity="1" stroke-width="1" stroke-linecap="square" stroke-linejoin="bevel" transform="matrix(2.14762,0,0,-2.14762,86,129)"
font-family="MS Shell Dlg 2" font-size="7.875" font-weight="400" font-style="normal" 
>
</g>

<g fill="none" stroke="#000000" stroke-opacity="1" stroke-width="1" stroke-linecap="square" stroke-linejoin="bevel" transform="matrix(1,0,0,1,-299,-98)"
font-family="MS Shell Dlg 2" font-size="7.875" font-weight="400" font-style="normal" 
>
</g>
</g>
</svg>
